<svg xmlns="http://www.w3.org/2000/svg" xmlns:xlink="http://www.w3.org/1999/xlink" width="125" zoomAndPan="magnify" viewBox="0 0 93.75 93.749997" height="125" preserveAspectRatio="xMidYMid meet" version="1.0"><defs><clipPath id="4f6cea5f90"><path d="M 0 11.277344 L 93 11.277344 L 93 82.339844 L 0 82.339844 Z M 0 11.277344 " clip-rule="nonzero"/></clipPath></defs><path fill="#000000" d="M 21.75 43.136719 C 21.75 43.316406 21.714844 43.492188 21.644531 43.664062 C 21.574219 43.832031 21.476562 43.980469 21.347656 44.109375 C 21.21875 44.238281 21.070312 44.339844 20.898438 44.410156 C 20.730469 44.476562 20.554688 44.511719 20.375 44.511719 C 20.191406 44.511719 20.015625 44.476562 19.847656 44.410156 C 19.679688 44.339844 19.53125 44.238281 19.402344 44.109375 C 19.273438 43.980469 19.171875 43.832031 19.101562 43.664062 C 19.03125 43.492188 18.996094 43.316406 18.996094 43.136719 C 18.996094 42.953125 19.03125 42.777344 19.101562 42.609375 C 19.171875 42.4375 19.273438 42.289062 19.402344 42.160156 C 19.53125 42.03125 19.679688 41.933594 19.847656 41.863281 C 20.015625 41.792969 20.191406 41.757812 20.375 41.757812 C 20.554688 41.757812 20.730469 41.792969 20.898438 41.863281 C 21.070312 41.933594 21.21875 42.03125 21.347656 42.160156 C 21.476562 42.289062 21.574219 42.4375 21.644531 42.609375 C 21.714844 42.777344 21.75 42.953125 21.75 43.136719 Z M 21.75 43.136719 " fill-opacity="1" fill-rule="nonzero"/><path fill="#000000" d="M 74.371094 43.136719 C 74.371094 43.316406 74.335938 43.492188 74.265625 43.664062 C 74.195312 43.832031 74.097656 43.980469 73.96875 44.109375 C 73.839844 44.238281 73.691406 44.335938 73.519531 44.40625 C 73.351562 44.476562 73.175781 44.511719 72.996094 44.511719 C 72.8125 44.511719 72.636719 44.476562 72.46875 44.40625 C 72.300781 44.335938 72.152344 44.238281 72.023438 44.109375 C 71.894531 43.980469 71.796875 43.832031 71.726562 43.664062 C 71.65625 43.492188 71.621094 43.316406 71.621094 43.136719 C 71.621094 42.953125 71.65625 42.777344 71.726562 42.609375 C 71.796875 42.441406 71.894531 42.289062 72.023438 42.160156 C 72.152344 42.03125 72.300781 41.933594 72.46875 41.863281 C 72.636719 41.792969 72.8125 41.757812 72.996094 41.757812 C 73.175781 41.757812 73.351562 41.792969 73.519531 41.863281 C 73.691406 41.933594 73.839844 42.03125 73.96875 42.160156 C 74.097656 42.289062 74.195312 42.441406 74.265625 42.609375 C 74.335938 42.777344 74.371094 42.953125 74.371094 43.136719 Z M 74.371094 43.136719 " fill-opacity="1" fill-rule="nonzero"/><path fill="#000000" d="M 17.988281 43.539062 C 18.1875 43.539062 18.378906 43.519531 18.566406 43.476562 C 18.542969 43.367188 18.535156 43.25 18.535156 43.136719 C 18.535156 42.117188 19.359375 41.289062 20.375 41.289062 C 20.476562 41.289062 20.574219 41.300781 20.671875 41.316406 C 20.703125 41.152344 20.722656 40.980469 20.722656 40.804688 C 20.722656 39.292969 19.5 38.070312 17.992188 38.070312 C 16.480469 38.070312 15.257812 39.292969 15.257812 40.804688 C 15.257812 42.316406 16.480469 43.539062 17.988281 43.539062 Z M 17.988281 43.539062 " fill-opacity="1" fill-rule="nonzero"/><path fill="#000000" d="M 11.230469 43.925781 C 13.175781 43.925781 14.753906 42.34375 14.753906 40.394531 C 14.753906 39.601562 14.492188 38.875 14.050781 38.285156 L 8.578125 38.070312 C 8.035156 38.691406 7.703125 39.503906 7.703125 40.394531 C 7.703125 42.34375 9.28125 43.925781 11.230469 43.925781 Z M 11.230469 43.925781 " fill-opacity="1" fill-rule="nonzero"/><path fill="#000000" d="M 79.316406 38.285156 C 78.878906 38.875 78.613281 39.601562 78.613281 40.394531 C 78.613281 42.34375 80.191406 43.925781 82.140625 43.925781 C 84.089844 43.925781 85.667969 42.34375 85.667969 40.394531 C 85.667969 39.503906 85.332031 38.691406 84.789062 38.070312 Z M 79.316406 38.285156 " fill-opacity="1" fill-rule="nonzero"/><path fill="#000000" d="M 75.378906 38.070312 C 73.867188 38.070312 72.648438 39.292969 72.648438 40.804688 C 72.648438 40.980469 72.664062 41.152344 72.695312 41.316406 C 72.792969 41.300781 72.894531 41.289062 72.996094 41.289062 C 74.007812 41.289062 74.835938 42.117188 74.835938 43.136719 C 74.835938 43.25 74.824219 43.367188 74.804688 43.476562 C 74.988281 43.519531 75.179688 43.542969 75.378906 43.542969 C 76.890625 43.542969 78.113281 42.316406 78.113281 40.804688 C 78.113281 39.292969 76.886719 38.070312 75.378906 38.070312 Z M 75.378906 38.070312 " fill-opacity="1" fill-rule="nonzero"/><g clip-path="url(#4f6cea5f90)"><path fill="#000000" d="M 90.402344 40.023438 C 89.199219 37.199219 81.894531 30.25 81.894531 30.25 C 81.894531 30.25 87.324219 29.957031 88.464844 29.761719 C 89.601562 29.570312 89.40625 26.40625 89.167969 24.875 C 88.933594 23.339844 87.050781 23.046875 87.050781 23.046875 C 87.050781 23.046875 84.621094 22.640625 83.210938 22.605469 C 81.796875 22.5625 81.855469 24.078125 81.855469 24.078125 L 82.09375 27.746094 L 80.527344 27.746094 C 80.527344 27.746094 73.859375 13.460938 70.957031 12.839844 C 68.234375 12.257812 52.679688 11.285156 46.570312 11.289062 C 40.519531 11.289062 25.140625 12.257812 22.417969 12.839844 C 19.515625 13.460938 12.847656 27.746094 12.847656 27.746094 L 11.277344 27.746094 L 11.515625 24.078125 C 11.515625 24.078125 11.574219 22.5625 10.160156 22.605469 C 8.75 22.640625 6.320312 23.046875 6.320312 23.046875 C 6.320312 23.046875 4.4375 23.339844 4.203125 24.875 C 3.964844 26.40625 3.769531 29.570312 4.90625 29.761719 C 6.042969 29.957031 11.476562 30.25 11.476562 30.25 C 11.476562 30.25 4.171875 37.199219 2.96875 40.023438 C 1.761719 42.84375 0.0273438 67.417969 0.496094 73.292969 C 0.96875 79.171875 1.800781 82.316406 5.207031 82.316406 C 8.613281 82.316406 13.652344 82.316406 13.652344 82.316406 C 13.652344 82.316406 16.671875 81.621094 16.671875 77.308594 C 16.671875 76.023438 16.671875 75.121094 16.671875 74.488281 L 24.453125 75.019531 L 26.691406 73.777344 L 66.683594 73.777344 L 68.917969 75.019531 L 76.703125 74.488281 C 76.703125 75.121094 76.703125 76.023438 76.703125 77.308594 C 76.703125 81.621094 79.71875 82.316406 79.71875 82.316406 C 79.71875 82.316406 84.757812 82.316406 88.164062 82.316406 C 91.574219 82.316406 92.402344 79.171875 92.875 73.292969 C 93.34375 67.417969 91.609375 42.84375 90.402344 40.023438 Z M 21.921875 14.664062 C 23.410156 14.367188 40.574219 13.316406 46.800781 13.316406 C 49.222656 13.316406 69.957031 14.367188 71.445312 14.664062 C 73.027344 14.980469 78.109375 28.171875 78.109375 28.171875 L 15.257812 28.171875 C 15.257812 28.171875 20.34375 14.980469 21.921875 14.664062 Z M 67.570312 40.128906 C 67.570312 41.332031 67.570312 47.929688 67.570312 47.929688 C 67.570312 47.929688 67.53125 49.363281 66.3125 49.363281 C 65.574219 49.363281 64.683594 49.363281 63.949219 49.363281 C 62.726562 49.363281 62.6875 47.929688 62.6875 47.929688 C 62.6875 47.929688 62.6875 41.332031 62.6875 40.128906 C 62.6875 38.925781 63.695312 39.082031 63.695312 39.082031 L 66.5625 39.082031 C 66.5625 39.078125 67.570312 38.925781 67.570312 40.128906 Z M 61.367188 40.128906 C 61.367188 41.332031 61.367188 47.929688 61.367188 47.929688 C 61.367188 47.929688 61.332031 49.363281 60.109375 49.363281 C 59.375 49.363281 58.484375 49.363281 57.746094 49.363281 C 56.523438 49.363281 56.484375 47.929688 56.484375 47.929688 C 56.484375 47.929688 56.484375 41.332031 56.484375 40.128906 C 56.484375 38.925781 57.492188 39.082031 57.492188 39.082031 L 60.359375 39.082031 C 60.363281 39.078125 61.367188 38.925781 61.367188 40.128906 Z M 55.054688 40.128906 C 55.054688 41.332031 55.054688 47.929688 55.054688 47.929688 C 55.054688 47.929688 55.015625 49.363281 53.792969 49.363281 C 53.058594 49.363281 52.167969 49.363281 51.433594 49.363281 C 50.210938 49.363281 50.171875 47.929688 50.171875 47.929688 C 50.171875 47.929688 50.171875 41.332031 50.171875 40.128906 C 50.171875 38.925781 51.179688 39.082031 51.179688 39.082031 L 54.046875 39.082031 C 54.046875 39.078125 55.054688 38.925781 55.054688 40.128906 Z M 49.007812 40.128906 C 49.007812 41.332031 49.007812 47.929688 49.007812 47.929688 C 49.007812 47.929688 48.972656 49.363281 47.75 49.363281 C 47.226562 49.363281 46.140625 49.363281 45.617188 49.363281 C 44.398438 49.363281 44.359375 47.929688 44.359375 47.929688 C 44.359375 47.929688 44.359375 41.332031 44.359375 40.128906 C 44.359375 38.925781 45.367188 39.082031 45.367188 39.082031 L 48 39.082031 C 48 39.078125 49.007812 38.925781 49.007812 40.128906 Z M 43.195312 40.128906 C 43.195312 41.332031 43.195312 47.929688 43.195312 47.929688 C 43.195312 47.929688 43.15625 49.363281 41.9375 49.363281 C 41.203125 49.363281 40.308594 49.363281 39.574219 49.363281 C 38.351562 49.363281 38.3125 47.929688 38.3125 47.929688 C 38.3125 47.929688 38.3125 41.332031 38.3125 40.128906 C 38.3125 38.925781 39.320312 39.082031 39.320312 39.082031 L 42.1875 39.082031 C 42.1875 39.078125 43.195312 38.925781 43.195312 40.128906 Z M 36.878906 40.128906 C 36.878906 41.332031 36.878906 47.929688 36.878906 47.929688 C 36.878906 47.929688 36.84375 49.363281 35.621094 49.363281 C 34.886719 49.363281 33.992188 49.363281 33.257812 49.363281 C 32.035156 49.363281 31.996094 47.929688 31.996094 47.929688 C 31.996094 47.929688 31.996094 41.332031 31.996094 40.128906 C 31.996094 38.925781 33.003906 39.082031 33.003906 39.082031 L 35.871094 39.082031 C 35.875 39.078125 36.878906 38.925781 36.878906 40.128906 Z M 30.679688 40.128906 C 30.679688 41.332031 30.679688 47.929688 30.679688 47.929688 C 30.679688 47.929688 30.640625 49.363281 29.421875 49.363281 C 28.683594 49.363281 27.792969 49.363281 27.058594 49.363281 C 25.835938 49.363281 25.796875 47.929688 25.796875 47.929688 C 25.796875 47.929688 25.796875 41.332031 25.796875 40.128906 C 25.796875 38.925781 26.804688 39.082031 26.804688 39.082031 L 29.671875 39.082031 C 29.671875 39.078125 30.679688 38.925781 30.679688 40.128906 Z M 5.726562 38.421875 C 5.726562 38.421875 5.84375 36.984375 7.625 37.023438 C 9.40625 37.0625 23.085938 37.488281 23.085938 37.488281 L 23.667969 44.824219 C 23.667969 44.824219 23.78125 46.570312 21.535156 46.414062 C 19.289062 46.261719 7.625 44.628906 7.625 44.628906 C 7.625 44.628906 5.804688 44.28125 5.726562 42.808594 C 5.648438 41.328125 5.726562 38.421875 5.726562 38.421875 Z M 6.09375 53.585938 C 5.570312 51.460938 6.328125 51.8125 6.328125 51.8125 C 6.328125 51.8125 19.40625 53.554688 19.722656 53.644531 C 20.042969 53.730469 22.078125 54.34375 22.164062 56 C 22.28125 56.90625 8.738281 55.796875 8.738281 55.796875 C 8.738281 55.796875 6.617188 55.710938 6.09375 53.585938 Z M 81.113281 69.21875 L 12.253906 69.21875 C 12.253906 69.21875 8.476562 69.628906 10.746094 65.085938 C 13.011719 60.542969 18.996094 60.777344 18.996094 60.777344 L 74.371094 60.777344 C 74.371094 60.777344 80.359375 60.542969 82.625 65.085938 C 84.890625 69.625 81.113281 69.21875 81.113281 69.21875 Z M 87.277344 53.585938 C 86.753906 55.710938 84.628906 55.796875 84.628906 55.796875 C 84.628906 55.796875 71.089844 56.90625 71.203125 56 C 71.292969 54.34375 73.324219 53.730469 73.644531 53.644531 C 73.964844 53.554688 87.042969 51.8125 87.042969 51.8125 C 87.042969 51.8125 87.796875 51.460938 87.277344 53.585938 Z M 87.644531 42.808594 C 87.566406 44.28125 85.742188 44.628906 85.742188 44.628906 C 85.742188 44.628906 74.078125 46.261719 71.832031 46.414062 C 69.585938 46.570312 69.703125 44.824219 69.703125 44.824219 L 70.28125 37.488281 C 70.28125 37.488281 83.960938 37.0625 85.742188 37.023438 C 87.527344 36.984375 87.644531 38.421875 87.644531 38.421875 C 87.644531 38.421875 87.71875 41.328125 87.644531 42.808594 Z M 87.644531 42.808594 " fill-opacity="1" fill-rule="nonzero"/></g></svg>