<svg xmlns="http://www.w3.org/2000/svg" xmlns:xlink="http://www.w3.org/1999/xlink" width="125" zoomAndPan="magnify" viewBox="0 0 93.75 93.749997" height="125" preserveAspectRatio="xMidYMid meet" version="1.0"><defs><clipPath id="11b3aa9301"><path d="M 28 3.023438 L 67 3.023438 L 67 51 L 28 51 Z M 28 3.023438 " clip-rule="nonzero"/></clipPath><clipPath id="b9c33db4e2"><path d="M 3.378906 53 L 90.894531 53 L 90.894531 89.792969 L 3.378906 89.792969 Z M 3.378906 53 " clip-rule="nonzero"/></clipPath></defs><g clip-path="url(#11b3aa9301)"><path fill="#262627" d="M 28.160156 23.429688 C 28.160156 34.683594 36.632812 50.476562 47.136719 50.476562 C 57.640625 50.476562 66.113281 34.683594 66.113281 23.429688 C 66.113281 12.175781 57.640625 3.023438 47.136719 3.023438 C 36.632812 3.023438 28.160156 12.175781 28.160156 23.429688 Z M 28.160156 23.429688 " fill-opacity="1" fill-rule="nonzero"/></g><g clip-path="url(#b9c33db4e2)"><path fill="#262627" d="M 85.289062 89.792969 C 88.339844 89.792969 90.710938 87.351562 90.507812 84.371094 C 90.035156 77.457031 88.679688 65.933594 85.019531 62.476562 C 81.5625 59.222656 61.027344 53.1875 61.027344 53.1875 L 47.136719 63.355469 L 33.242188 53.1875 C 33.242188 53.1875 12.710938 59.222656 9.253906 62.476562 C 5.59375 65.933594 4.238281 77.386719 3.765625 84.371094 C 3.5625 87.351562 5.933594 89.792969 8.980469 89.792969 Z M 85.289062 89.792969 " fill-opacity="1" fill-rule="nonzero"/></g></svg>