<svg xmlns="http://www.w3.org/2000/svg" xmlns:xlink="http://www.w3.org/1999/xlink" width="125" zoomAndPan="magnify" viewBox="0 0 93.75 93.749997" height="125" preserveAspectRatio="xMidYMid meet" version="1.0"><defs><clipPath id="ba2ca248c5"><path d="M 4.675781 4.675781 L 45 4.675781 L 45 45 L 4.675781 45 Z M 4.675781 4.675781 " clip-rule="nonzero"/></clipPath><clipPath id="7fedf64c31"><path d="M 49 4.675781 L 89.199219 4.675781 L 89.199219 45 L 49 45 Z M 49 4.675781 " clip-rule="nonzero"/></clipPath><clipPath id="6f922749b9"><path d="M 4.675781 49 L 45 49 L 45 89.199219 L 4.675781 89.199219 Z M 4.675781 49 " clip-rule="nonzero"/></clipPath><clipPath id="f5e1b4a93f"><path d="M 49 49 L 89.199219 49 L 89.199219 89.199219 L 49 89.199219 Z M 49 49 " clip-rule="nonzero"/></clipPath></defs><g clip-path="url(#ba2ca248c5)"><path fill="#2b2b30" d="M 15.242188 4.675781 L 33.730469 4.675781 C 34.425781 4.675781 35.109375 4.742188 35.792969 4.878906 C 36.472656 5.011719 37.132812 5.214844 37.773438 5.480469 C 38.414062 5.746094 39.023438 6.070312 39.601562 6.457031 C 40.175781 6.839844 40.710938 7.277344 41.203125 7.769531 C 41.691406 8.261719 42.128906 8.792969 42.515625 9.371094 C 42.902344 9.949219 43.226562 10.554688 43.492188 11.199219 C 43.757812 11.839844 43.957031 12.5 44.09375 13.179688 C 44.226562 13.859375 44.296875 14.546875 44.296875 15.242188 L 44.296875 33.730469 C 44.296875 34.425781 44.226562 35.109375 44.09375 35.792969 C 43.957031 36.472656 43.757812 37.132812 43.492188 37.773438 C 43.226562 38.414062 42.902344 39.023438 42.515625 39.601562 C 42.128906 40.175781 41.691406 40.710938 41.203125 41.203125 C 40.710938 41.691406 40.175781 42.128906 39.601562 42.515625 C 39.023438 42.902344 38.414062 43.226562 37.773438 43.492188 C 37.132812 43.757812 36.472656 43.957031 35.792969 44.09375 C 35.109375 44.226562 34.425781 44.296875 33.730469 44.296875 L 15.242188 44.296875 C 14.546875 44.296875 13.859375 44.226562 13.179688 44.09375 C 12.5 43.957031 11.839844 43.757812 11.199219 43.492188 C 10.554688 43.226562 9.949219 42.902344 9.371094 42.515625 C 8.792969 42.128906 8.261719 41.691406 7.769531 41.203125 C 7.277344 40.710938 6.839844 40.175781 6.457031 39.601562 C 6.070312 39.023438 5.746094 38.414062 5.480469 37.773438 C 5.214844 37.132812 5.011719 36.472656 4.878906 35.792969 C 4.742188 35.109375 4.675781 34.425781 4.675781 33.730469 L 4.675781 15.242188 C 4.675781 14.546875 4.742188 13.859375 4.878906 13.179688 C 5.011719 12.5 5.214844 11.839844 5.480469 11.199219 C 5.746094 10.554688 6.070312 9.949219 6.457031 9.371094 C 6.839844 8.792969 7.277344 8.261719 7.769531 7.769531 C 8.261719 7.277344 8.792969 6.839844 9.371094 6.457031 C 9.949219 6.070312 10.554688 5.746094 11.199219 5.480469 C 11.839844 5.214844 12.5 5.011719 13.179688 4.878906 C 13.859375 4.742188 14.546875 4.675781 15.242188 4.675781 Z M 15.242188 4.675781 " fill-opacity="1" fill-rule="nonzero"/></g><g clip-path="url(#7fedf64c31)"><path fill="#2b2b30" d="M 60.144531 4.675781 L 78.632812 4.675781 C 79.328125 4.675781 80.015625 4.742188 80.695312 4.878906 C 81.375 5.011719 82.035156 5.214844 82.675781 5.480469 C 83.316406 5.746094 83.925781 6.070312 84.503906 6.457031 C 85.082031 6.839844 85.613281 7.277344 86.105469 7.769531 C 86.59375 8.261719 87.035156 8.792969 87.417969 9.371094 C 87.804688 9.949219 88.128906 10.554688 88.394531 11.199219 C 88.660156 11.839844 88.859375 12.5 88.996094 13.179688 C 89.132812 13.859375 89.199219 14.546875 89.199219 15.242188 L 89.199219 33.730469 C 89.199219 34.425781 89.132812 35.109375 88.996094 35.792969 C 88.859375 36.472656 88.660156 37.132812 88.394531 37.773438 C 88.128906 38.414062 87.804688 39.023438 87.417969 39.601562 C 87.035156 40.175781 86.59375 40.710938 86.105469 41.203125 C 85.613281 41.691406 85.082031 42.128906 84.503906 42.515625 C 83.925781 42.902344 83.316406 43.226562 82.675781 43.492188 C 82.035156 43.757812 81.375 43.957031 80.695312 44.09375 C 80.015625 44.226562 79.328125 44.296875 78.632812 44.296875 L 60.144531 44.296875 C 59.449219 44.296875 58.761719 44.226562 58.082031 44.09375 C 57.402344 43.957031 56.742188 43.757812 56.101562 43.492188 C 55.460938 43.226562 54.851562 42.902344 54.273438 42.515625 C 53.699219 42.128906 53.164062 41.691406 52.671875 41.203125 C 52.183594 40.710938 51.746094 40.175781 51.359375 39.601562 C 50.972656 39.023438 50.648438 38.414062 50.382812 37.773438 C 50.117188 37.132812 49.917969 36.472656 49.78125 35.792969 C 49.644531 35.109375 49.578125 34.425781 49.578125 33.730469 L 49.578125 15.242188 C 49.578125 14.546875 49.644531 13.859375 49.78125 13.179688 C 49.917969 12.5 50.117188 11.839844 50.382812 11.199219 C 50.648438 10.554688 50.972656 9.949219 51.359375 9.371094 C 51.746094 8.792969 52.183594 8.261719 52.671875 7.769531 C 53.164062 7.277344 53.699219 6.839844 54.273438 6.457031 C 54.851562 6.070312 55.460938 5.746094 56.101562 5.480469 C 56.742188 5.214844 57.402344 5.011719 58.082031 4.878906 C 58.761719 4.742188 59.449219 4.675781 60.144531 4.675781 Z M 60.144531 4.675781 " fill-opacity="1" fill-rule="nonzero"/></g><g clip-path="url(#6f922749b9)"><path fill="#2b2b30" d="M 15.242188 49.578125 L 33.730469 49.578125 C 34.425781 49.578125 35.109375 49.644531 35.792969 49.78125 C 36.472656 49.917969 37.132812 50.117188 37.773438 50.382812 C 38.414062 50.648438 39.023438 50.972656 39.601562 51.359375 C 40.175781 51.746094 40.710938 52.183594 41.203125 52.671875 C 41.691406 53.164062 42.128906 53.699219 42.515625 54.273438 C 42.902344 54.851562 43.226562 55.460938 43.492188 56.101562 C 43.757812 56.742188 43.957031 57.402344 44.09375 58.082031 C 44.226562 58.761719 44.296875 59.449219 44.296875 60.144531 L 44.296875 78.632812 C 44.296875 79.328125 44.226562 80.015625 44.09375 80.695312 C 43.957031 81.375 43.757812 82.035156 43.492188 82.675781 C 43.226562 83.316406 42.902344 83.925781 42.515625 84.503906 C 42.128906 85.082031 41.691406 85.613281 41.203125 86.105469 C 40.710938 86.59375 40.175781 87.035156 39.601562 87.417969 C 39.023438 87.804688 38.414062 88.128906 37.773438 88.394531 C 37.132812 88.660156 36.472656 88.859375 35.792969 88.996094 C 35.109375 89.132812 34.425781 89.199219 33.730469 89.199219 L 15.242188 89.199219 C 14.546875 89.199219 13.859375 89.132812 13.179688 88.996094 C 12.5 88.859375 11.839844 88.660156 11.199219 88.394531 C 10.554688 88.128906 9.949219 87.804688 9.371094 87.417969 C 8.792969 87.035156 8.261719 86.59375 7.769531 86.105469 C 7.277344 85.613281 6.839844 85.082031 6.457031 84.503906 C 6.070312 83.925781 5.746094 83.316406 5.480469 82.675781 C 5.214844 82.035156 5.011719 81.375 4.878906 80.695312 C 4.742188 80.015625 4.675781 79.328125 4.675781 78.632812 L 4.675781 60.144531 C 4.675781 59.449219 4.742188 58.761719 4.878906 58.082031 C 5.011719 57.402344 5.214844 56.742188 5.480469 56.101562 C 5.746094 55.460938 6.070312 54.851562 6.457031 54.273438 C 6.839844 53.699219 7.277344 53.164062 7.769531 52.671875 C 8.261719 52.183594 8.792969 51.746094 9.371094 51.359375 C 9.949219 50.972656 10.554688 50.648438 11.199219 50.382812 C 11.839844 50.117188 12.5 49.917969 13.179688 49.78125 C 13.859375 49.644531 14.546875 49.578125 15.242188 49.578125 Z M 15.242188 49.578125 " fill-opacity="1" fill-rule="nonzero"/></g><g clip-path="url(#f5e1b4a93f)"><path fill="#2b2b30" d="M 60.144531 49.578125 L 78.632812 49.578125 C 79.328125 49.578125 80.015625 49.644531 80.695312 49.78125 C 81.375 49.917969 82.035156 50.117188 82.675781 50.382812 C 83.316406 50.648438 83.925781 50.972656 84.503906 51.359375 C 85.082031 51.746094 85.613281 52.183594 86.105469 52.671875 C 86.59375 53.164062 87.035156 53.699219 87.417969 54.273438 C 87.804688 54.851562 88.128906 55.460938 88.394531 56.101562 C 88.660156 56.742188 88.859375 57.402344 88.996094 58.082031 C 89.132812 58.761719 89.199219 59.449219 89.199219 60.144531 L 89.199219 78.632812 C 89.199219 79.328125 89.132812 80.015625 88.996094 80.695312 C 88.859375 81.375 88.660156 82.035156 88.394531 82.675781 C 88.128906 83.316406 87.804688 83.925781 87.417969 84.503906 C 87.035156 85.082031 86.59375 85.613281 86.105469 86.105469 C 85.613281 86.59375 85.082031 87.035156 84.503906 87.417969 C 83.925781 87.804688 83.316406 88.128906 82.675781 88.394531 C 82.035156 88.660156 81.375 88.859375 80.695312 88.996094 C 80.015625 89.132812 79.328125 89.199219 78.632812 89.199219 L 60.144531 89.199219 C 59.449219 89.199219 58.761719 89.132812 58.082031 88.996094 C 57.402344 88.859375 56.742188 88.660156 56.101562 88.394531 C 55.460938 88.128906 54.851562 87.804688 54.273438 87.417969 C 53.699219 87.035156 53.164062 86.59375 52.671875 86.105469 C 52.183594 85.613281 51.746094 85.082031 51.359375 84.503906 C 50.972656 83.925781 50.648438 83.316406 50.382812 82.675781 C 50.117188 82.035156 49.917969 81.375 49.78125 80.695312 C 49.644531 80.015625 49.578125 79.328125 49.578125 78.632812 L 49.578125 60.144531 C 49.578125 59.449219 49.644531 58.761719 49.78125 58.082031 C 49.917969 57.402344 50.117188 56.742188 50.382812 56.101562 C 50.648438 55.460938 50.972656 54.851562 51.359375 54.273438 C 51.746094 53.699219 52.183594 53.164062 52.671875 52.671875 C 53.164062 52.183594 53.699219 51.746094 54.273438 51.359375 C 54.851562 50.972656 55.460938 50.648438 56.101562 50.382812 C 56.742188 50.117188 57.402344 49.917969 58.082031 49.78125 C 58.761719 49.644531 59.449219 49.578125 60.144531 49.578125 Z M 60.144531 49.578125 " fill-opacity="1" fill-rule="nonzero"/></g></svg>