<svg xmlns="http://www.w3.org/2000/svg" xmlns:xlink="http://www.w3.org/1999/xlink" width="125" zoomAndPan="magnify" viewBox="0 0 93.75 93.749997" height="125" preserveAspectRatio="xMidYMid meet" version="1.0"><defs><clipPath id="57a37f332c"><path d="M 3.980469 3.980469 L 89.191406 3.980469 L 89.191406 89.253906 L 3.980469 89.253906 Z M 3.980469 3.980469 " clip-rule="nonzero"/></clipPath></defs><g clip-path="url(#57a37f332c)"><path fill="#100f0d" d="M 46.320312 30.402344 C 55.1875 30.234375 62.5 37.289062 62.667969 46.15625 C 62.667969 46.3125 62.667969 46.464844 62.667969 46.625 C 62.765625 55.488281 55.664062 62.757812 46.800781 62.855469 C 37.933594 62.953125 30.667969 55.851562 30.566406 46.988281 C 30.566406 46.867188 30.566406 46.746094 30.566406 46.625 C 30.46875 37.804688 37.503906 30.558594 46.320312 30.402344 Z M 48.039062 4.019531 C 45.648438 3.933594 43.25 4.054688 40.878906 4.375 C 40.039062 4.488281 39.351562 5.078125 39.101562 5.882812 L 36.738281 13.574219 C 36.535156 14.222656 36.035156 14.746094 35.390625 14.972656 C 34.277344 15.375 33.1875 15.820312 32.121094 16.328125 C 31.5 16.632812 30.773438 16.617188 30.167969 16.289062 L 23.066406 12.519531 C 22.316406 12.125 21.40625 12.203125 20.742188 12.71875 C 17.699219 15.027344 14.988281 17.742188 12.671875 20.78125 C 12.15625 21.453125 12.082031 22.355469 12.476562 23.105469 L 16.253906 30.210938 C 16.578125 30.808594 16.609375 31.535156 16.328125 32.15625 C 15.8125 33.226562 15.359375 34.316406 14.964844 35.429688 C 14.738281 36.078125 14.214844 36.578125 13.558594 36.777344 L 5.875 39.144531 C 5.0625 39.386719 4.472656 40.082031 4.367188 40.917969 C 3.851562 44.710938 3.851562 48.539062 4.367188 52.332031 C 4.472656 53.164062 5.0625 53.863281 5.875 54.105469 L 13.558594 56.472656 C 14.214844 56.671875 14.738281 57.171875 14.964844 57.820312 C 15.359375 58.933594 15.8125 60.023438 16.328125 61.089844 C 16.609375 61.710938 16.578125 62.4375 16.253906 63.039062 L 12.476562 70.144531 C 12.082031 70.886719 12.15625 71.796875 12.671875 72.46875 C 14.988281 75.503906 17.699219 78.214844 20.742188 80.53125 C 21.40625 81.046875 22.316406 81.117188 23.066406 80.730469 L 30.167969 76.960938 C 30.773438 76.632812 31.5 76.617188 32.121094 76.914062 C 33.1875 77.421875 34.277344 77.875 35.390625 78.269531 C 36.035156 78.496094 36.535156 79.019531 36.738281 79.667969 L 39.101562 87.359375 C 39.351562 88.171875 40.039062 88.761719 40.878906 88.867188 C 44.664062 89.382812 48.503906 89.382812 52.289062 88.867188 C 53.121094 88.761719 53.816406 88.171875 54.066406 87.359375 L 56.429688 79.667969 C 56.632812 79.019531 57.132812 78.496094 57.777344 78.269531 C 58.890625 77.875 59.988281 77.421875 61.046875 76.914062 C 61.667969 76.617188 62.386719 76.632812 62.992188 76.960938 L 70.101562 80.730469 C 70.851562 81.117188 71.757812 81.046875 72.425781 80.53125 C 75.46875 78.214844 78.179688 75.503906 80.496094 72.46875 C 81.007812 71.796875 81.085938 70.886719 80.691406 70.144531 L 76.921875 63.039062 C 76.589844 62.4375 76.566406 61.710938 76.84375 61.089844 C 77.351562 60.023438 77.808594 58.933594 78.199219 57.820312 C 78.429688 57.171875 78.949219 56.671875 79.609375 56.472656 L 87.300781 54.105469 C 88.101562 53.855469 88.691406 53.164062 88.808594 52.332031 C 89.3125 48.539062 89.3125 44.710938 88.808594 40.917969 C 88.691406 40.082031 88.101562 39.386719 87.300781 39.144531 L 79.609375 36.777344 C 78.949219 36.578125 78.429688 36.078125 78.199219 35.429688 C 77.808594 34.316406 77.351562 33.226562 76.84375 32.15625 C 76.566406 31.535156 76.589844 30.808594 76.921875 30.210938 L 80.691406 23.105469 C 81.085938 22.355469 81.007812 21.453125 80.496094 20.78125 C 78.179688 17.742188 75.46875 15.027344 72.425781 12.71875 C 71.757812 12.203125 70.851562 12.125 70.101562 12.519531 L 62.992188 16.289062 C 62.386719 16.617188 61.667969 16.632812 61.046875 16.335938 C 59.988281 15.828125 58.890625 15.375 57.777344 14.980469 C 57.132812 14.753906 56.632812 14.230469 56.429688 13.574219 L 54.066406 5.886719 C 53.816406 5.078125 53.121094 4.488281 52.289062 4.375 C 50.878906 4.183594 49.464844 4.0625 48.039062 4.019531 " fill-opacity="1" fill-rule="nonzero"/></g></svg>