<svg xmlns="http://www.w3.org/2000/svg" xmlns:xlink="http://www.w3.org/1999/xlink" width="200" zoomAndPan="magnify"
    viewBox="0 0 150 149.999998" height="200" preserveAspectRatio="xMidYMid meet" version="1.0">
    <defs>
        <g />
        <clipPath id="6793c6bcc1">
            <path
                d="M 40.09375 29.222656 L 109.90625 29.222656 L 109.90625 99.035156 L 40.09375 99.035156 Z M 40.09375 29.222656 "
                clip-rule="nonzero" />
        </clipPath>
        <clipPath id="fbc71d24a5">
            <path
                d="M 75 29.222656 C 55.722656 29.222656 40.09375 44.851562 40.09375 64.128906 C 40.09375 83.40625 55.722656 99.035156 75 99.035156 C 94.277344 99.035156 109.90625 83.40625 109.90625 64.128906 C 109.90625 44.851562 94.277344 29.222656 75 29.222656 Z M 75 29.222656 "
                clip-rule="nonzero" />
        </clipPath>
        <clipPath id="363651a096">
            <path
                d="M 47.625 55.429688 L 102.375 55.429688 L 102.375 98.929688 L 47.625 98.929688 Z M 47.625 55.429688 "
                clip-rule="nonzero" />
        </clipPath>
    </defs>
    <g clip-path="url(#6793c6bcc1)">
        <g clip-path="url(#fbc71d24a5)">
            <path fill="#f9f5ef"
                d="M 40.09375 29.222656 L 109.90625 29.222656 L 109.90625 99.035156 L 40.09375 99.035156 Z M 40.09375 29.222656 "
                fill-opacity="1" fill-rule="nonzero" />
        </g>
    </g>
    <g clip-path="url(#363651a096)">
        <path fill="#1e161a"
            d="M 102.082031 75.425781 L 101.445312 73.625 C 101.09375 72.636719 99.992188 71.824219 99.003906 71.824219 L 96.734375 71.824219 C 95.050781 67.113281 93.015625 61.417969 92.375 60.082031 C 91.445312 57.988281 88.484375 57.058594 86.855469 56.59375 C 86.855469 56.59375 84.125 55.550781 75 55.550781 C 65.875 55.550781 63.199219 56.59375 63.199219 56.59375 C 61.28125 57.234375 58.609375 58.164062 57.5625 60.140625 C 57.039062 61.128906 54.945312 66.941406 53.261719 71.824219 L 51.054688 71.824219 C 50.066406 71.824219 48.960938 72.636719 48.613281 73.625 L 47.972656 75.425781 C 47.625 76.414062 48.148438 77.226562 49.136719 77.226562 L 51.402344 77.226562 C 51.109375 78.042969 50.9375 78.507812 50.9375 78.507812 C 50.761719 78.796875 50.644531 80.132812 50.644531 80.539062 L 50.644531 96.988281 C 50.644531 98.035156 51.519531 98.90625 52.5625 98.90625 L 59.539062 98.90625 C 60.585938 98.90625 61.457031 98.035156 61.457031 96.988281 L 61.457031 93.5 L 88.597656 93.5 L 88.597656 96.988281 C 88.597656 98.035156 89.472656 98.90625 90.515625 98.90625 L 97.550781 98.90625 C 98.597656 98.90625 99.46875 98.035156 99.46875 96.988281 L 99.46875 80.539062 C 99.46875 80.191406 99.351562 78.796875 99.175781 78.507812 C 99.175781 78.507812 99.003906 78.042969 98.710938 77.226562 L 100.921875 77.226562 C 101.851562 77.226562 102.375 76.414062 102.082031 75.425781 Z M 61.457031 85.539062 L 59.132812 83.96875 C 54.832031 83.621094 54.308594 85.132812 53.378906 83.503906 L 53.378906 81.527344 C 53.378906 79.609375 54.480469 79.554688 55.703125 79.554688 C 56.863281 79.554688 59.191406 80.539062 60.757812 81.238281 C 62.445312 81.992188 63.664062 81.355469 64.304688 83.855469 C 64.246094 85.015625 63.605469 85.539062 61.457031 85.539062 Z M 57.386719 72.578125 C 58.839844 66.648438 61.28125 62.523438 61.632812 61.535156 C 61.863281 60.835938 61.28125 59.558594 75.058594 59.558594 C 88.832031 59.558594 88.074219 61.417969 88.132812 61.476562 C 88.773438 62.8125 91.332031 67.171875 92.667969 72.578125 C 92.667969 72.578125 87.496094 73.277344 75.695312 73.277344 C 63.898438 73.277344 57.386719 72.578125 57.386719 72.578125 Z M 85.808594 83.855469 C 88.539062 80.484375 87.667969 81.992188 89.355469 81.238281 C 90.867188 80.539062 93.25 79.554688 94.410156 79.554688 C 95.632812 79.554688 96.734375 79.609375 96.734375 81.527344 L 96.734375 83.503906 C 95.863281 85.074219 95.109375 83.679688 90.75 84.085938 L 88.597656 85.480469 C 86.449219 85.539062 85.054688 84.726562 85.808594 83.855469 Z M 85.808594 83.855469 "
            fill-opacity="1" fill-rule="nonzero" />
    </g>
    <g fill="#f9f5ef" fill-opacity="1">
        <g transform="translate(36.547968, 111.147008)">
            <g>
                <path
                    d="M 5.1875 -9.328125 C 5.707031 -9.328125 6.1875 -9.265625 6.625 -9.140625 C 7.0625 -9.015625 7.507812 -8.816406 7.96875 -8.546875 L 8.28125 -8.8125 C 8.5 -8.988281 8.679688 -9.109375 8.828125 -9.171875 C 8.972656 -9.234375 9.140625 -9.265625 9.328125 -9.265625 C 9.546875 -9.265625 9.71875 -9.21875 9.84375 -9.125 C 9.976562 -9.03125 10.046875 -8.890625 10.046875 -8.703125 C 10.046875 -8.628906 10.03125 -8.550781 10 -8.46875 L 9.421875 -6.546875 C 9.359375 -6.328125 9.273438 -6.171875 9.171875 -6.078125 C 9.078125 -5.984375 8.929688 -5.9375 8.734375 -5.9375 C 8.535156 -5.9375 8.359375 -6 8.203125 -6.125 C 8.054688 -6.25 7.820312 -6.503906 7.5 -6.890625 C 7.164062 -7.265625 6.867188 -7.523438 6.609375 -7.671875 C 6.347656 -7.828125 6.078125 -7.90625 5.796875 -7.90625 C 5.597656 -7.90625 5.425781 -7.835938 5.28125 -7.703125 C 5.144531 -7.566406 5.078125 -7.40625 5.078125 -7.21875 C 5.078125 -6.988281 5.1875 -6.78125 5.40625 -6.59375 C 5.632812 -6.40625 5.984375 -6.171875 6.453125 -5.890625 C 6.929688 -5.597656 7.328125 -5.335938 7.640625 -5.109375 C 7.953125 -4.878906 8.21875 -4.59375 8.4375 -4.25 C 8.664062 -3.90625 8.78125 -3.507812 8.78125 -3.0625 C 8.78125 -2.78125 8.734375 -2.492188 8.640625 -2.203125 C 8.421875 -1.460938 7.988281 -0.898438 7.34375 -0.515625 C 6.707031 -0.128906 5.96875 0.0625 5.125 0.0625 C 4.476562 0.0625 3.9375 -0.0078125 3.5 -0.15625 C 3.070312 -0.3125 2.628906 -0.566406 2.171875 -0.921875 L 1.671875 -0.5 C 1.441406 -0.300781 1.253906 -0.164062 1.109375 -0.09375 C 0.960938 -0.03125 0.796875 0 0.609375 0 C 0.398438 0 0.234375 -0.0507812 0.109375 -0.15625 C -0.015625 -0.257812 -0.078125 -0.394531 -0.078125 -0.5625 C -0.078125 -0.65625 -0.0625 -0.753906 -0.03125 -0.859375 L 0.65625 -2.921875 C 0.726562 -3.160156 0.828125 -3.332031 0.953125 -3.4375 C 1.085938 -3.539062 1.253906 -3.59375 1.453125 -3.59375 C 1.671875 -3.59375 1.863281 -3.519531 2.03125 -3.375 C 2.207031 -3.226562 2.429688 -2.957031 2.703125 -2.5625 C 3.003906 -2.132812 3.28125 -1.835938 3.53125 -1.671875 C 3.78125 -1.503906 4.082031 -1.421875 4.4375 -1.421875 C 4.6875 -1.421875 4.878906 -1.460938 5.015625 -1.546875 C 5.148438 -1.628906 5.242188 -1.753906 5.296875 -1.921875 C 5.316406 -1.972656 5.328125 -2.046875 5.328125 -2.140625 C 5.328125 -2.359375 5.21875 -2.5625 5 -2.75 C 4.789062 -2.9375 4.46875 -3.15625 4.03125 -3.40625 C 3.550781 -3.695312 3.160156 -3.953125 2.859375 -4.171875 C 2.566406 -4.398438 2.3125 -4.6875 2.09375 -5.03125 C 1.882812 -5.375 1.78125 -5.78125 1.78125 -6.25 C 1.78125 -6.570312 1.828125 -6.890625 1.921875 -7.203125 C 2.117188 -7.835938 2.519531 -8.347656 3.125 -8.734375 C 3.726562 -9.128906 4.414062 -9.328125 5.1875 -9.328125 Z M 5.1875 -9.328125 " />
            </g>
        </g>
    </g>
    <g fill="#f9f5ef" fill-opacity="1">
        <g transform="translate(46.101358, 111.147008)">
            <g>
                <path
                    d="M 13.03125 -5.375 C 13.03125 -4.550781 12.742188 -3.707031 12.171875 -2.84375 C 11.597656 -1.976562 10.875 -1.265625 10 -0.703125 C 9.125 -0.148438 8.265625 0.125 7.421875 0.125 C 6.753906 0.125 6.1875 0.0078125 5.71875 -0.21875 C 5.257812 -0.445312 4.960938 -0.78125 4.828125 -1.21875 C 4.484375 -0.800781 4.101562 -0.484375 3.6875 -0.265625 C 3.269531 -0.0546875 2.835938 0.046875 2.390625 0.046875 C 1.753906 0.046875 1.238281 -0.109375 0.84375 -0.421875 C 0.457031 -0.734375 0.265625 -1.191406 0.265625 -1.796875 C 0.265625 -2.109375 0.316406 -2.429688 0.421875 -2.765625 L 1.1875 -5.484375 C 1.207031 -5.554688 1.21875 -5.609375 1.21875 -5.640625 C 1.21875 -5.734375 1.191406 -5.8125 1.140625 -5.875 C 1.097656 -5.945312 1.035156 -6.019531 0.953125 -6.09375 C 0.816406 -6.207031 0.75 -6.3125 0.75 -6.40625 C 0.738281 -6.539062 0.816406 -6.679688 0.984375 -6.828125 C 1.148438 -6.972656 1.382812 -7.09375 1.6875 -7.1875 C 1.988281 -7.289062 2.328125 -7.34375 2.703125 -7.34375 C 3.328125 -7.34375 3.8125 -7.191406 4.15625 -6.890625 C 4.5 -6.585938 4.671875 -6.195312 4.671875 -5.71875 C 4.671875 -5.5 4.632812 -5.265625 4.5625 -5.015625 L 3.859375 -2.65625 C 3.816406 -2.53125 3.796875 -2.445312 3.796875 -2.40625 C 3.796875 -2.28125 3.832031 -2.1875 3.90625 -2.125 C 3.976562 -2.0625 4.070312 -2.03125 4.1875 -2.03125 C 4.351562 -2.03125 4.492188 -2.085938 4.609375 -2.203125 C 4.722656 -2.316406 4.835938 -2.503906 4.953125 -2.765625 L 5.75 -5.484375 C 5.757812 -5.554688 5.765625 -5.609375 5.765625 -5.640625 C 5.765625 -5.734375 5.742188 -5.8125 5.703125 -5.875 C 5.660156 -5.945312 5.597656 -6.019531 5.515625 -6.09375 C 5.367188 -6.207031 5.296875 -6.3125 5.296875 -6.40625 C 5.285156 -6.539062 5.363281 -6.679688 5.53125 -6.828125 C 5.695312 -6.972656 5.929688 -7.09375 6.234375 -7.1875 C 6.535156 -7.289062 6.875 -7.34375 7.25 -7.34375 C 7.882812 -7.34375 8.375 -7.191406 8.71875 -6.890625 C 9.0625 -6.597656 9.234375 -6.207031 9.234375 -5.71875 C 9.234375 -5.519531 9.191406 -5.285156 9.109375 -5.015625 L 8.21875 -2.046875 C 8.195312 -2.003906 8.1875 -1.9375 8.1875 -1.84375 C 8.1875 -1.726562 8.226562 -1.632812 8.3125 -1.5625 C 8.394531 -1.5 8.507812 -1.46875 8.65625 -1.46875 C 8.863281 -1.46875 9.101562 -1.554688 9.375 -1.734375 C 9.644531 -1.921875 9.910156 -2.179688 10.171875 -2.515625 C 10.441406 -2.859375 10.660156 -3.257812 10.828125 -3.71875 C 10.453125 -4.039062 10.1875 -4.359375 10.03125 -4.671875 C 9.882812 -4.984375 9.8125 -5.304688 9.8125 -5.640625 C 9.8125 -6.117188 9.941406 -6.519531 10.203125 -6.84375 C 10.460938 -7.175781 10.835938 -7.34375 11.328125 -7.34375 C 11.816406 -7.34375 12.222656 -7.164062 12.546875 -6.8125 C 12.867188 -6.457031 13.03125 -5.976562 13.03125 -5.375 Z M 13.03125 -5.375 " />
            </g>
        </g>
    </g>
    <g fill="#f9f5ef" fill-opacity="1">
        <g transform="translate(58.954761, 111.147008)">
            <g>
                <path
                    d="M 3.65625 -7.34375 C 4.1875 -7.34375 4.578125 -7.238281 4.828125 -7.03125 C 5.078125 -6.832031 5.203125 -6.554688 5.203125 -6.203125 C 5.203125 -5.992188 5.171875 -5.789062 5.109375 -5.59375 L 3.828125 -1.4375 C 3.804688 -1.332031 3.796875 -1.238281 3.796875 -1.15625 C 3.796875 -1.03125 3.816406 -0.929688 3.859375 -0.859375 C 3.910156 -0.796875 3.976562 -0.734375 4.0625 -0.671875 C 4.125 -0.597656 4.164062 -0.539062 4.1875 -0.5 C 4.21875 -0.457031 4.222656 -0.40625 4.203125 -0.34375 C 4.160156 -0.226562 4.066406 -0.140625 3.921875 -0.078125 C 3.785156 -0.0234375 3.578125 0 3.296875 0 L 0.125 0 C -0.113281 0 -0.285156 -0.0351562 -0.390625 -0.109375 C -0.503906 -0.191406 -0.546875 -0.300781 -0.515625 -0.4375 C -0.472656 -0.539062 -0.375 -0.632812 -0.21875 -0.71875 C -0.0820312 -0.789062 0.03125 -0.878906 0.125 -0.984375 C 0.21875 -1.085938 0.296875 -1.25 0.359375 -1.46875 L 1.578125 -5.484375 C 1.597656 -5.566406 1.609375 -5.632812 1.609375 -5.6875 C 1.609375 -5.789062 1.582031 -5.867188 1.53125 -5.921875 C 1.488281 -5.984375 1.425781 -6.050781 1.34375 -6.125 C 1.25 -6.195312 1.179688 -6.257812 1.140625 -6.3125 C 1.109375 -6.363281 1.101562 -6.4375 1.125 -6.53125 C 1.1875 -6.75 1.476562 -6.9375 2 -7.09375 C 2.53125 -7.257812 3.082031 -7.34375 3.65625 -7.34375 Z M 4.59375 -10.40625 C 4.945312 -10.40625 5.242188 -10.285156 5.484375 -10.046875 C 5.734375 -9.816406 5.859375 -9.53125 5.859375 -9.1875 C 5.859375 -8.945312 5.796875 -8.707031 5.671875 -8.46875 C 5.546875 -8.238281 5.367188 -8.050781 5.140625 -7.90625 C 4.910156 -7.769531 4.65625 -7.703125 4.375 -7.703125 C 4.03125 -7.703125 3.738281 -7.816406 3.5 -8.046875 C 3.257812 -8.285156 3.140625 -8.582031 3.140625 -8.9375 C 3.140625 -9.164062 3.195312 -9.394531 3.3125 -9.625 C 3.4375 -9.851562 3.609375 -10.039062 3.828125 -10.1875 C 4.046875 -10.332031 4.300781 -10.40625 4.59375 -10.40625 Z M 4.59375 -10.40625 " />
            </g>
        </g>
    </g>
    <g fill="#f9f5ef" fill-opacity="1">
        <g transform="translate(64.029566, 111.147008)">
            <g>
                <path
                    d="M 5.65625 -10.25 C 6.644531 -10.25 7.382812 -10.097656 7.875 -9.796875 C 8.375 -9.503906 8.625 -9.140625 8.625 -8.703125 C 8.625 -8.347656 8.476562 -8.078125 8.1875 -7.890625 C 7.894531 -7.703125 7.515625 -7.609375 7.046875 -7.609375 C 6.609375 -7.609375 6.269531 -7.710938 6.03125 -7.921875 C 5.789062 -8.128906 5.671875 -8.394531 5.671875 -8.71875 C 5.671875 -8.90625 5.734375 -9.109375 5.859375 -9.328125 C 5.578125 -9.328125 5.34375 -9.257812 5.15625 -9.125 C 4.976562 -8.988281 4.835938 -8.757812 4.734375 -8.4375 C 4.671875 -8.226562 4.640625 -8.035156 4.640625 -7.859375 C 4.640625 -7.640625 4.679688 -7.46875 4.765625 -7.34375 C 4.847656 -7.21875 4.960938 -7.15625 5.109375 -7.15625 L 5.921875 -7.15625 C 6.398438 -7.15625 6.640625 -7.007812 6.640625 -6.71875 C 6.640625 -6.675781 6.632812 -6.617188 6.625 -6.546875 C 6.5625 -6.347656 6.441406 -6.195312 6.265625 -6.09375 C 6.097656 -5.988281 5.847656 -5.9375 5.515625 -5.9375 L 5.09375 -5.9375 L 3.71875 -1.4375 C 3.6875 -1.332031 3.671875 -1.238281 3.671875 -1.15625 C 3.671875 -1.03125 3.691406 -0.929688 3.734375 -0.859375 C 3.785156 -0.796875 3.851562 -0.734375 3.9375 -0.671875 C 4 -0.597656 4.046875 -0.539062 4.078125 -0.5 C 4.109375 -0.457031 4.113281 -0.40625 4.09375 -0.34375 C 4.050781 -0.226562 3.957031 -0.140625 3.8125 -0.078125 C 3.675781 -0.0234375 3.460938 0 3.171875 0 L 0.015625 0 C -0.222656 0 -0.398438 -0.0351562 -0.515625 -0.109375 C -0.628906 -0.191406 -0.664062 -0.300781 -0.625 -0.4375 C -0.582031 -0.539062 -0.484375 -0.632812 -0.328125 -0.71875 C -0.191406 -0.789062 -0.078125 -0.878906 0.015625 -0.984375 C 0.109375 -1.085938 0.1875 -1.25 0.25 -1.46875 L 1.328125 -5.015625 C 1.378906 -5.160156 1.40625 -5.304688 1.40625 -5.453125 C 1.40625 -5.640625 1.363281 -5.785156 1.28125 -5.890625 C 1.207031 -5.992188 1.085938 -6.113281 0.921875 -6.25 C 0.828125 -6.332031 0.753906 -6.398438 0.703125 -6.453125 C 0.648438 -6.515625 0.625 -6.585938 0.625 -6.671875 C 0.613281 -6.847656 0.675781 -6.972656 0.8125 -7.046875 C 0.945312 -7.117188 1.203125 -7.15625 1.578125 -7.15625 L 1.921875 -7.15625 C 1.859375 -7.382812 1.828125 -7.617188 1.828125 -7.859375 C 1.828125 -8.085938 1.867188 -8.328125 1.953125 -8.578125 C 2.128906 -9.046875 2.503906 -9.441406 3.078125 -9.765625 C 3.660156 -10.085938 4.519531 -10.25 5.65625 -10.25 Z M 5.65625 -10.25 " />
            </g>
        </g>
    </g>
    <g fill="#f9f5ef" fill-opacity="1">
        <g transform="translate(69.797653, 111.147008)">
            <g>
                <path
                    d="M 6.203125 -7.15625 C 6.378906 -7.15625 6.515625 -7.117188 6.609375 -7.046875 C 6.703125 -6.972656 6.75 -6.875 6.75 -6.75 C 6.75 -6.707031 6.742188 -6.640625 6.734375 -6.546875 C 6.609375 -6.140625 6.328125 -5.9375 5.890625 -5.9375 L 5.09375 -5.9375 L 4.046875 -2.515625 C 4.003906 -2.367188 3.984375 -2.222656 3.984375 -2.078125 C 3.984375 -1.910156 4.03125 -1.796875 4.125 -1.734375 C 4.21875 -1.671875 4.347656 -1.640625 4.515625 -1.640625 C 4.660156 -1.640625 4.84375 -1.65625 5.0625 -1.6875 C 5.175781 -1.71875 5.273438 -1.734375 5.359375 -1.734375 C 5.421875 -1.734375 5.46875 -1.710938 5.5 -1.671875 C 5.53125 -1.628906 5.546875 -1.578125 5.546875 -1.515625 C 5.554688 -1.328125 5.421875 -1.097656 5.140625 -0.828125 C 4.859375 -0.566406 4.476562 -0.34375 4 -0.15625 C 3.519531 0.03125 2.988281 0.125 2.40625 0.125 C 1.769531 0.125 1.257812 -0.015625 0.875 -0.296875 C 0.5 -0.585938 0.3125 -0.984375 0.3125 -1.484375 C 0.3125 -1.710938 0.351562 -1.9375 0.4375 -2.15625 L 1.3125 -4.890625 C 1.363281 -5.054688 1.390625 -5.179688 1.390625 -5.265625 C 1.390625 -5.453125 1.34375 -5.609375 1.25 -5.734375 C 1.164062 -5.867188 1.046875 -6.003906 0.890625 -6.140625 C 0.753906 -6.273438 0.65625 -6.382812 0.59375 -6.46875 C 0.539062 -6.5625 0.53125 -6.664062 0.5625 -6.78125 C 0.59375 -6.90625 0.664062 -7 0.78125 -7.0625 C 0.90625 -7.125 1.097656 -7.15625 1.359375 -7.15625 L 2.140625 -7.15625 L 3.015625 -8.03125 C 3.316406 -8.332031 3.59375 -8.546875 3.84375 -8.671875 C 4.101562 -8.796875 4.4375 -8.859375 4.84375 -8.859375 C 5.425781 -8.859375 5.71875 -8.632812 5.71875 -8.1875 C 5.71875 -8.050781 5.695312 -7.921875 5.65625 -7.796875 L 5.46875 -7.15625 Z M 6.203125 -7.15625 " />
            </g>
        </g>
    </g>
    <g fill="#f9f5ef" fill-opacity="1">
        <g transform="translate(75.759855, 111.147008)">
            <g />
        </g>
    </g>
    <g fill="#f9f5ef" fill-opacity="1">
        <g transform="translate(78.532974, 111.147008)">
            <g>
                <path
                    d="M 4.828125 0.078125 C 4.046875 0.078125 3.34375 -0.0625 2.71875 -0.34375 C 2.101562 -0.632812 1.613281 -1.054688 1.25 -1.609375 C 0.882812 -2.171875 0.703125 -2.851562 0.703125 -3.65625 C 0.703125 -4.207031 0.800781 -4.804688 1 -5.453125 C 1.425781 -6.835938 2.066406 -7.835938 2.921875 -8.453125 C 3.785156 -9.066406 4.707031 -9.375 5.6875 -9.375 C 6.21875 -9.375 6.6875 -9.296875 7.09375 -9.140625 C 7.5 -8.984375 7.875 -8.757812 8.21875 -8.46875 L 8.59375 -8.75 C 8.84375 -8.945312 9.050781 -9.082031 9.21875 -9.15625 C 9.394531 -9.226562 9.585938 -9.265625 9.796875 -9.265625 C 10.023438 -9.265625 10.207031 -9.210938 10.34375 -9.109375 C 10.488281 -9.015625 10.5625 -8.867188 10.5625 -8.671875 C 10.5625 -8.566406 10.539062 -8.460938 10.5 -8.359375 L 9.71875 -6.203125 C 9.632812 -5.953125 9.535156 -5.773438 9.421875 -5.671875 C 9.304688 -5.566406 9.132812 -5.515625 8.90625 -5.515625 C 8.664062 -5.515625 8.46875 -5.597656 8.3125 -5.765625 C 8.164062 -5.941406 7.992188 -6.238281 7.796875 -6.65625 C 7.578125 -7.09375 7.394531 -7.378906 7.25 -7.515625 C 7.113281 -7.660156 6.910156 -7.734375 6.640625 -7.734375 C 6.265625 -7.734375 5.898438 -7.5 5.546875 -7.03125 C 5.191406 -6.5625 4.875 -5.859375 4.59375 -4.921875 C 4.351562 -4.140625 4.234375 -3.484375 4.234375 -2.953125 C 4.234375 -2.492188 4.320312 -2.148438 4.5 -1.921875 C 4.675781 -1.691406 4.910156 -1.578125 5.203125 -1.578125 C 5.640625 -1.578125 6 -1.675781 6.28125 -1.875 C 6.5625 -2.070312 6.847656 -2.332031 7.140625 -2.65625 C 7.328125 -2.863281 7.476562 -3.015625 7.59375 -3.109375 C 7.707031 -3.210938 7.832031 -3.265625 7.96875 -3.265625 C 8.132812 -3.265625 8.304688 -3.179688 8.484375 -3.015625 C 8.671875 -2.847656 8.757812 -2.679688 8.75 -2.515625 C 8.757812 -2.304688 8.59375 -1.988281 8.25 -1.5625 C 7.914062 -1.132812 7.453125 -0.753906 6.859375 -0.421875 C 6.265625 -0.0859375 5.585938 0.078125 4.828125 0.078125 Z M 4.828125 0.078125 " />
            </g>
        </g>
    </g>
    <g fill="#f9f5ef" fill-opacity="1">
        <g transform="translate(88.127961, 111.147008)">
            <g>
                <path
                    d="M 4.953125 -7.34375 C 6.015625 -7.34375 6.863281 -7.144531 7.5 -6.75 C 8.144531 -6.351562 8.46875 -5.753906 8.46875 -4.953125 C 8.46875 -4.648438 8.410156 -4.300781 8.296875 -3.90625 L 7.734375 -2 C 7.722656 -1.957031 7.71875 -1.910156 7.71875 -1.859375 C 7.71875 -1.710938 7.773438 -1.640625 7.890625 -1.640625 C 8.003906 -1.640625 8.097656 -1.6875 8.171875 -1.78125 C 8.253906 -1.875 8.3125 -1.921875 8.34375 -1.921875 C 8.382812 -1.921875 8.421875 -1.890625 8.453125 -1.828125 C 8.484375 -1.765625 8.5 -1.691406 8.5 -1.609375 C 8.507812 -1.359375 8.414062 -1.101562 8.21875 -0.84375 C 8.019531 -0.582031 7.753906 -0.367188 7.421875 -0.203125 C 7.085938 -0.0351562 6.722656 0.046875 6.328125 0.046875 C 5.847656 0.046875 5.4375 -0.0390625 5.09375 -0.21875 C 4.75 -0.394531 4.515625 -0.65625 4.390625 -1 C 4.109375 -0.664062 3.773438 -0.40625 3.390625 -0.21875 C 3.015625 -0.0390625 2.609375 0.046875 2.171875 0.046875 C 1.679688 0.046875 1.269531 -0.046875 0.9375 -0.234375 C 0.601562 -0.429688 0.351562 -0.675781 0.1875 -0.96875 C 0.03125 -1.269531 -0.046875 -1.585938 -0.046875 -1.921875 C -0.046875 -2.078125 -0.03125 -2.222656 0 -2.359375 C 0.144531 -2.992188 0.460938 -3.472656 0.953125 -3.796875 C 1.453125 -4.117188 2.046875 -4.28125 2.734375 -4.28125 C 3.503906 -4.28125 4.257812 -4.160156 5 -3.921875 L 5.34375 -4.84375 C 5.457031 -5.226562 5.515625 -5.53125 5.515625 -5.75 C 5.515625 -5.96875 5.441406 -6.128906 5.296875 -6.234375 C 5.160156 -6.347656 4.945312 -6.40625 4.65625 -6.40625 C 4.71875 -6.257812 4.75 -6.109375 4.75 -5.953125 C 4.75 -5.609375 4.617188 -5.3125 4.359375 -5.0625 C 4.097656 -4.8125 3.726562 -4.6875 3.25 -4.6875 C 2.789062 -4.6875 2.429688 -4.785156 2.171875 -4.984375 C 1.921875 -5.179688 1.796875 -5.429688 1.796875 -5.734375 C 1.796875 -6.191406 2.054688 -6.570312 2.578125 -6.875 C 3.097656 -7.1875 3.890625 -7.34375 4.953125 -7.34375 Z M 4.171875 -3.140625 C 3.910156 -3.140625 3.695312 -3.039062 3.53125 -2.84375 C 3.375 -2.644531 3.296875 -2.425781 3.296875 -2.1875 C 3.296875 -2.039062 3.332031 -1.921875 3.40625 -1.828125 C 3.476562 -1.734375 3.578125 -1.6875 3.703125 -1.6875 C 3.828125 -1.6875 3.957031 -1.734375 4.09375 -1.828125 C 4.238281 -1.929688 4.34375 -2.082031 4.40625 -2.28125 L 4.703125 -3.09375 C 4.546875 -3.125 4.367188 -3.140625 4.171875 -3.140625 Z M 4.171875 -3.140625 " />
            </g>
        </g>
    </g>
    <g fill="#f9f5ef" fill-opacity="1">
        <g transform="translate(97.196057, 111.147008)">
            <g>
                <path
                    d="M 6.8125 -7.34375 C 7.332031 -7.34375 7.742188 -7.179688 8.046875 -6.859375 C 8.359375 -6.546875 8.515625 -6.160156 8.515625 -5.703125 C 8.515625 -5.523438 8.5 -5.363281 8.46875 -5.21875 C 8.375 -4.832031 8.195312 -4.535156 7.9375 -4.328125 C 7.675781 -4.128906 7.363281 -4.03125 7 -4.03125 C 6.65625 -4.03125 6.390625 -4.113281 6.203125 -4.28125 C 6.023438 -4.445312 5.867188 -4.671875 5.734375 -4.953125 C 5.660156 -5.109375 5.585938 -5.222656 5.515625 -5.296875 C 5.453125 -5.367188 5.378906 -5.40625 5.296875 -5.40625 C 5.203125 -5.40625 5.117188 -5.367188 5.046875 -5.296875 C 4.984375 -5.222656 4.925781 -5.09375 4.875 -4.90625 L 3.796875 -1.4375 C 3.785156 -1.394531 3.78125 -1.328125 3.78125 -1.234375 C 3.78125 -1.109375 3.8125 -1.003906 3.875 -0.921875 C 3.945312 -0.847656 4.039062 -0.773438 4.15625 -0.703125 C 4.269531 -0.628906 4.34375 -0.566406 4.375 -0.515625 C 4.414062 -0.472656 4.429688 -0.414062 4.421875 -0.34375 C 4.398438 -0.226562 4.332031 -0.140625 4.21875 -0.078125 C 4.101562 -0.0234375 3.910156 0 3.640625 0 L 0.078125 0 C -0.160156 0 -0.332031 -0.0351562 -0.4375 -0.109375 C -0.539062 -0.191406 -0.582031 -0.300781 -0.5625 -0.4375 C -0.519531 -0.539062 -0.421875 -0.632812 -0.265625 -0.71875 C -0.128906 -0.789062 -0.015625 -0.878906 0.078125 -0.984375 C 0.171875 -1.085938 0.25 -1.25 0.3125 -1.46875 L 1.546875 -5.484375 C 1.566406 -5.523438 1.578125 -5.585938 1.578125 -5.671875 C 1.578125 -5.773438 1.554688 -5.851562 1.515625 -5.90625 C 1.472656 -5.96875 1.40625 -6.039062 1.3125 -6.125 C 1.21875 -6.195312 1.148438 -6.257812 1.109375 -6.3125 C 1.078125 -6.363281 1.078125 -6.4375 1.109375 -6.53125 C 1.160156 -6.75 1.453125 -6.9375 1.984375 -7.09375 C 2.515625 -7.257812 3.066406 -7.34375 3.640625 -7.34375 C 4.015625 -7.34375 4.328125 -7.253906 4.578125 -7.078125 C 4.828125 -6.910156 4.988281 -6.671875 5.0625 -6.359375 C 5.507812 -7.015625 6.09375 -7.34375 6.8125 -7.34375 Z M 6.8125 -7.34375 " />
            </g>
        </g>
    </g>
    <g fill="#f9f5ef" fill-opacity="1">
        <g transform="translate(105.224234, 111.147008)">
            <g>
                <path
                    d="M 4.5625 -7.46875 C 5.332031 -7.46875 5.992188 -7.394531 6.546875 -7.25 C 7.109375 -7.113281 7.539062 -6.921875 7.84375 -6.671875 C 8.144531 -6.421875 8.296875 -6.140625 8.296875 -5.828125 C 8.296875 -5.503906 8.164062 -5.238281 7.90625 -5.03125 C 7.65625 -4.832031 7.304688 -4.734375 6.859375 -4.734375 C 6.390625 -4.734375 5.992188 -4.847656 5.671875 -5.078125 C 5.359375 -5.304688 5.203125 -5.597656 5.203125 -5.953125 C 5.203125 -6.066406 5.222656 -6.179688 5.265625 -6.296875 C 5.097656 -6.347656 4.945312 -6.375 4.8125 -6.375 C 4.582031 -6.375 4.390625 -6.316406 4.234375 -6.203125 C 4.085938 -6.085938 4.019531 -5.929688 4.03125 -5.734375 C 4.03125 -5.492188 4.148438 -5.289062 4.390625 -5.125 C 4.628906 -4.957031 5.015625 -4.75 5.546875 -4.5 C 6.015625 -4.289062 6.394531 -4.097656 6.6875 -3.921875 C 6.988281 -3.753906 7.242188 -3.539062 7.453125 -3.28125 C 7.660156 -3.03125 7.765625 -2.726562 7.765625 -2.375 C 7.765625 -2.300781 7.75 -2.160156 7.71875 -1.953125 C 7.570312 -1.335938 7.160156 -0.847656 6.484375 -0.484375 C 5.804688 -0.117188 4.914062 0.0625 3.8125 0.0625 C 2.570312 0.0625 1.585938 -0.101562 0.859375 -0.4375 C 0.140625 -0.769531 -0.21875 -1.226562 -0.21875 -1.8125 C -0.21875 -2.21875 -0.0976562 -2.519531 0.140625 -2.71875 C 0.378906 -2.925781 0.695312 -3.03125 1.09375 -3.03125 C 1.5625 -3.03125 1.957031 -2.882812 2.28125 -2.59375 C 2.613281 -2.3125 2.78125 -1.945312 2.78125 -1.5 C 2.78125 -1.375 2.765625 -1.25 2.734375 -1.125 C 2.953125 -1.070312 3.164062 -1.046875 3.375 -1.046875 C 3.613281 -1.046875 3.8125 -1.109375 3.96875 -1.234375 C 4.125 -1.359375 4.203125 -1.539062 4.203125 -1.78125 C 4.191406 -1.988281 4.082031 -2.164062 3.875 -2.3125 C 3.675781 -2.46875 3.351562 -2.65625 2.90625 -2.875 C 2.5 -3.0625 2.160156 -3.238281 1.890625 -3.40625 C 1.617188 -3.582031 1.390625 -3.800781 1.203125 -4.0625 C 1.015625 -4.320312 0.921875 -4.628906 0.921875 -4.984375 C 0.921875 -5.742188 1.234375 -6.347656 1.859375 -6.796875 C 2.492188 -7.242188 3.394531 -7.46875 4.5625 -7.46875 Z M 4.5625 -7.46875 " />
            </g>
        </g>
    </g>
</svg>