<svg xmlns="http://www.w3.org/2000/svg" xmlns:xlink="http://www.w3.org/1999/xlink" width="500" zoomAndPan="magnify"
    viewBox="0 0 375 374.999991" height="500" preserveAspectRatio="xMidYMid meet" version="1.0">
    <path fill="#26292c"
        d="M 187.5 -0.0195312 C 83.929688 -0.0195312 -0.0195312 83.929688 -0.0195312 187.5 C -0.0195312 291.070312 83.929688 375.019531 187.5 375.019531 C 291.070312 375.019531 375.019531 291.070312 375.019531 187.5 C 375.019531 83.929688 291.070312 -0.0195312 187.5 -0.0195312 Z M 307.660156 213.03125 C 296.144531 270.140625 246.714844 313.074219 187.5 313.074219 C 119.722656 313.074219 64.792969 256.84375 64.792969 187.488281 C 64.792969 118.136719 119.730469 61.90625 187.5 61.90625 C 213.746094 61.90625 238.082031 70.347656 258.050781 84.738281 C 265.804688 90.324219 266.695312 101.535156 259.941406 108.296875 L 247.359375 120.878906 C 242.152344 126.085938 234.023438 126.871094 227.855469 122.839844 C 216.273438 115.28125 202.527344 110.902344 187.765625 110.902344 C 146.613281 110.902344 113.257812 144.957031 113.257812 186.96875 C 113.257812 228.988281 146.613281 263.042969 187.765625 263.042969 C 219.957031 263.042969 247.371094 242.195312 257.804688 213.011719 L 203.96875 213.011719 C 196.449219 213.011719 190.363281 206.925781 190.363281 199.40625 L 190.363281 178.671875 C 190.363281 171.152344 196.449219 165.066406 203.96875 165.066406 L 308.253906 165.066406 C 309.535156 172.339844 310.207031 179.828125 310.207031 187.480469 C 310.207031 196.257812 309.339844 204.796875 307.660156 213.03125 Z M 307.660156 213.03125 "
        fill-opacity="1" fill-rule="nonzero" />
    <path fill="#ffffff"
        d="M 203.96875 165.089844 C 196.449219 165.089844 190.363281 171.175781 190.363281 178.691406 L 190.363281 199.425781 C 190.363281 206.945312 196.449219 213.03125 203.96875 213.03125 L 257.785156 213.03125 C 247.359375 242.214844 219.9375 263.0625 187.746094 263.0625 C 146.59375 263.0625 113.238281 229.011719 113.238281 186.988281 C 113.238281 144.976562 146.59375 110.925781 187.746094 110.925781 C 202.507812 110.925781 216.253906 115.304688 227.832031 122.863281 C 234 126.890625 242.132812 126.105469 247.339844 120.898438 L 259.921875 108.316406 C 266.683594 101.554688 265.785156 90.34375 258.03125 84.757812 C 238.074219 70.375 213.738281 61.925781 187.480469 61.925781 C 119.703125 61.925781 64.769531 118.15625 64.769531 187.511719 C 64.769531 256.863281 119.710938 313.09375 187.480469 313.09375 C 246.695312 313.09375 296.125 270.160156 307.640625 213.050781 C 309.308594 204.808594 310.1875 196.277344 310.1875 187.519531 C 310.1875 179.867188 309.511719 172.382812 308.234375 165.109375 L 203.96875 165.109375 Z M 203.96875 165.089844 "
        fill-opacity="1" fill-rule="nonzero" />
</svg>