<svg xmlns="http://www.w3.org/2000/svg" xmlns:xlink="http://www.w3.org/1999/xlink" width="40" zoomAndPan="magnify"
    viewBox="0 0 30 30.000001" height="40" preserveAspectRatio="xMidYMid meet" version="1.0">
    <defs>
        <clipPath id="9fe0b2416e">
            <path d="M 0.484375 0 L 29.515625 0 L 29.515625 29.03125 L 0.484375 29.03125 Z M 0.484375 0 "
                clip-rule="nonzero" />
        </clipPath>
    </defs>
    <g clip-path="url(#9fe0b2416e)">
        <path fill="#262627"
            d="M 15 0 C 6.984375 0 0.484375 6.5 0.484375 14.515625 C 0.484375 22.53125 6.984375 29.03125 15 29.03125 C 23.015625 29.03125 29.515625 22.53125 29.515625 14.515625 C 29.515625 6.5 23.015625 0 15 0 Z M 23.167969 12.277344 L 14.675781 20.769531 C 14.265625 21.179688 13.714844 21.40625 13.132812 21.40625 C 12.5625 21.40625 12.011719 21.179688 11.601562 20.769531 L 7.359375 16.527344 C 6.507812 15.675781 6.507812 14.304688 7.359375 13.453125 C 8.210938 12.609375 9.574219 12.609375 10.425781 13.453125 L 13.132812 16.167969 L 20.09375 9.207031 C 20.945312 8.355469 22.316406 8.355469 23.167969 9.207031 C 24.011719 10.050781 24.011719 11.421875 23.167969 12.277344 Z M 23.167969 12.277344 "
            fill-opacity="1" fill-rule="nonzero" />
    </g>
    <path fill="#ececee"
        d="M 23.167969 12.277344 L 14.675781 20.769531 C 14.265625 21.179688 13.714844 21.40625 13.132812 21.40625 C 12.5625 21.40625 12.011719 21.179688 11.601562 20.769531 L 7.359375 16.527344 C 6.507812 15.675781 6.507812 14.304688 7.359375 13.453125 C 8.210938 12.609375 9.574219 12.609375 10.425781 13.453125 L 13.132812 16.167969 L 20.09375 9.207031 C 20.945312 8.355469 22.316406 8.355469 23.167969 9.207031 C 24.011719 10.050781 24.011719 11.421875 23.167969 12.277344 Z M 23.167969 12.277344 "
        fill-opacity="1" fill-rule="nonzero" />
</svg>