<svg xmlns="http://www.w3.org/2000/svg" version="1.1" xmlns:xlink="http://www.w3.org/1999/xlink" xmlns:svgjs="http://svgjs.dev/svgjs" width="1440" height="560" preserveAspectRatio="none" viewBox="0 0 1440 560"><g mask="url(&quot;#SvgjsMask1004&quot;)" fill="none"><rect width="1440" height="560" x="0" y="0" fill="rgba(38, 41, 44, 1)"></rect><path d="M512.9 668.99C636.44 648.66 577.83 361.17 896.65 347.19 1215.47 333.21 1463.89 120.03 1664.15 117.59" stroke="rgba(239, 239, 238, 1)" stroke-width="2"></path><path d="M403.15 665.43C562.07 664.77 700.72 541.3 1025.79 537.27 1350.86 533.24 1481.08 295.3 1648.43 290.87" stroke="rgba(239, 239, 238, 1)" stroke-width="2"></path><path d="M547.06 587.11C683.58 521.04 623.43 80.36 878.37 78.9 1133.32 77.44 1361.25 353.23 1541 358.9" stroke="rgba(239, 239, 238, 1)" stroke-width="2"></path><path d="M680.05 600.13C800.5 561.95 726.61 232.68 1006.74 214.49 1286.87 196.3 1491.8 53.3 1660.11 52.09" stroke="rgba(239, 239, 238, 1)" stroke-width="2"></path><path d="M270.6 645.2C439.76 636.36 544.09 347.7 873.48 335.98 1202.87 324.26 1315.61 115.56 1476.36 111.98" stroke="rgba(239, 239, 238, 1)" stroke-width="2"></path></g><defs><mask id="SvgjsMask1004"><rect width="1440" height="560" fill="#ffffff"></rect></mask></defs></svg>