<svg xmlns="http://www.w3.org/2000/svg" version="1.1" xmlns:xlink="http://www.w3.org/1999/xlink"
    xmlns:svgjs="http://svgjs.dev/svgjs" width="750" height="700" preserveAspectRatio="none" viewBox="0 0 750 700">
    <g mask="url(&quot;#SvgjsMask1043&quot;)" fill="none">
        <path
            d="M375 664.18C459.13 657.85 538.24 632.17 602.55 577.55 673.43 517.33 742.75 442.99 744.89 350 747.06 255.71 683.88 174.24 613.26 111.74 547.24 53.31 463.09 25.96 375 22.66 282.8 19.21 181.38 25.94 118.22 93.22 56.15 159.33 69.02 259.32 67.66 350 66.25 442.88 45.42 548.24 110.36 614.64 175.61 681.34 281.96 671.2 375 664.18"
            fill="#6f51e9"></path>
        <path
            d="M375 492.81C413.24 489.93 449.2 478.26 478.43 453.43 510.65 426.06 542.16 392.27 543.13 350 544.12 307.14 515.4 270.11 483.3 241.7 453.29 215.14 415.04 202.71 375 201.21 333.09 199.64 286.99 202.7 258.28 233.28 230.07 263.33 235.92 308.78 235.3 350 234.66 392.22 225.19 440.11 254.71 470.29 284.37 500.61 332.71 496 375 492.81"
            fill="#6f51e9"></path>
    </g>
    <defs>
        <mask id="SvgjsMask1043">
            <rect width="750" height="700" fill="#ffffff"></rect>
        </mask>
    </defs>
</svg>