<svg xmlns="http://www.w3.org/2000/svg" version="1.1" xmlns:xlink="http://www.w3.org/1999/xlink" xmlns:svgjs="http://svgjs.dev/svgjs" width="600" height="600" preserveAspectRatio="none" viewBox="0 0 600 600"><g mask="url(&quot;#SvgjsMask1077&quot;)" fill="none"><path d="M300 593.02C376.49 588.27 450.66 558.83 501.21 501.21 548.93 446.83 552.93 372.23 557.16 300 561.78 221.02 580.83 131.02 526.2 73.8 471.12 16.07 379.79 30.02 300 30.61 221.11 31.2 135.24 23.77 77.16 77.16 17.56 131.94 7.84 219.04 6.94 300 6.04 382.13 14.11 469.75 72.19 527.81 130.25 585.87 218.05 598.1 300 593.02" fill="rgba(111, 81, 233, 1)"></path><path d="M300 433.19C334.77 431.03 368.48 417.65 391.46 391.46 413.15 366.74 414.97 332.83 416.89 300 418.99 264.1 427.65 223.19 402.82 197.18 377.78 170.94 336.27 177.28 300 177.55 264.14 177.82 225.11 174.44 198.71 198.71 171.62 223.61 167.2 263.2 166.79 300 166.38 337.33 170.05 377.16 196.45 403.55 222.84 429.94 262.75 435.5 300 433.19" fill="rgba(28, 83, 142, 1)"></path></g><defs><mask id="SvgjsMask1077"><rect width="600" height="600" fill="#ffffff"></rect></mask></defs></svg>