<svg xmlns="http://www.w3.org/2000/svg" version="1.1" xmlns:xlink="http://www.w3.org/1999/xlink" xmlns:svgjs="http://svgjs.dev/svgjs" width="600" height="800" preserveAspectRatio="none" viewBox="0 0 600 800"><g mask="url(&quot;#SvgjsMask1038&quot;)" fill="none"><path d="M300 671.85C378.39 673.68 466.78 677.6 520.37 620.37 573.22 563.97 558.46 477.2 554.65 400 551.11 328.32 550.29 251.21 499.65 200.35 448.94 149.42 371.79 147.81 300 144.23 222.67 140.36 134.03 124.54 79.34 179.34 24.67 234.12 42.93 322.63 44.78 400 46.56 474.49 38.68 556 89.68 610.32 141.67 665.69 224.08 670.07 300 671.85" fill="rgba(111, 81, 233, 1)"></path><path d="M300 523.57C335.63 524.4 375.81 526.18 400.17 500.17 424.19 474.53 417.48 435.09 415.75 400 414.14 367.42 413.77 332.37 390.75 309.25 367.7 286.1 332.63 285.37 300 283.74 264.85 281.98 224.56 274.79 199.7 299.7 174.85 324.6 183.15 364.83 183.99 400 184.8 433.86 181.22 470.91 204.4 495.6 228.03 520.77 265.49 522.76 300 523.57" fill="rgba(111, 81, 233, 0.29)"></path></g><defs><mask id="SvgjsMask1038"><rect width="600" height="800" fill="#ffffff"></rect></mask></defs></svg>