<svg xmlns="http://www.w3.org/2000/svg" version="1.1" xmlns:xlink="http://www.w3.org/1999/xlink" xmlns:svgjs="http://svgjs.dev/svgjs" width="600" height="600" preserveAspectRatio="none" viewBox="0 0 600 600"><g mask="url(&quot;#SvgjsMask1005&quot;)" fill="none"><path d="M300 593.3C380.72 591.94 464.19 578.37 521.78 521.78 579.8 464.78 598.91 381.33 598.58 300 598.25 219.04 581.16 133.04 520 80 461.5 29.29 377.42 40.58 300 41.1 223.42 41.63 136.89 28.59 82.97 82.97 29.16 137.27 45.48 223.57 43.37 300 41.15 380.01 17.92 469.14 70.63 529.37 124.97 591.48 217.5 594.69 300 593.3" fill="rgba(111, 81, 233, 1)"></path><path d="M300 433.32C336.69 432.7 374.63 426.53 400.81 400.81 427.18 374.9 435.87 336.97 435.72 300 435.57 263.2 427.8 224.11 400 200 373.41 176.95 335.19 182.08 300 182.32 265.19 182.56 225.86 176.63 201.35 201.35 176.89 226.03 184.31 265.26 183.35 300 182.34 336.37 171.78 376.88 195.74 404.26 220.44 432.49 262.5 433.95 300 433.32" fill="rgba(210, 163, 128, 1)"></path></g><defs><mask id="SvgjsMask1005"><rect width="600" height="600" fill="#ffffff"></rect></mask></defs></svg>