<svg xmlns="http://www.w3.org/2000/svg" xmlns:xlink="http://www.w3.org/1999/xlink" width="500" zoomAndPan="magnify"
    viewBox="0 0 375 374.999991" height="500" preserveAspectRatio="xMidYMid meet" version="1.0">
    <defs>
        <`ipPath id="3947aed3d8">
            <path d="M 105.300781 150 L 234 150 L 234 212 L 105.300781 212 Z M 105.300781 150 " clip-rule="nonzero" />
            </clipPath>
    </defs>
    <rect x="-37.5" width="450" fill="#ffffff" y="-37.499999" height="449.999989" fill-opacity="1" />
    <rect x="-37.5" width="450" fill="#e6ede9" y="-37.499999" height="449.999989" fill-opacity="1" />
    <g clip-path="url(#3947aed3d8)">
        <path fill="#8d6f8d"
            d="M 230.484375 171.457031 L 223.671875 171.792969 L 208.742188 172.523438 L 204.398438 172.738281 L 198.34375 173.03125 L 183.351562 173.765625 C 181.671875 173.847656 180.914062 171.695312 182.273438 170.699219 C 190.175781 164.910156 198.90625 160.886719 207.9375 158.128906 C 210.28125 157.410156 212.644531 156.777344 215.027344 156.226562 C 216.644531 155.851562 218.265625 155.507812 219.890625 155.203125 C 220.398438 155.105469 220.902344 155.011719 221.410156 154.921875 C 220.789062 154.160156 220.136719 153.410156 219.460938 152.675781 C 218.742188 151.894531 218.007812 151.136719 217.253906 150.410156 C 213.847656 151.066406 210.613281 151.839844 207.570312 152.679688 C 186.390625 158.539062 174.136719 167.90625 173.949219 168.054688 C 165.839844 170.78125 158.457031 171.6875 142.085938 174.023438 C 116.03125 177.746094 111.070312 181.46875 108.585938 191.394531 C 108.585938 191.394531 105.300781 194.679688 105.414062 203.921875 C 105.464844 207.988281 108.796875 211.246094 112.859375 211.246094 L 133.316406 211.246094 C 132.398438 209.027344 131.941406 206.722656 131.945312 204.324219 C 131.945312 194.316406 140.054688 186.207031 150.058594 186.207031 C 160.0625 186.207031 168.167969 194.316406 168.167969 204.320312 C 168.171875 206.722656 167.714844 209.027344 166.800781 211.246094 L 227.292969 211.246094 C 233.660156 198.9375 234.773438 184.535156 230.484375 171.457031 Z M 132.894531 182.511719 C 132.136719 184.894531 128.675781 191.628906 113.773438 191.855469 C 113.671875 191.855469 113.574219 191.835938 113.484375 191.792969 C 113.390625 191.753906 113.3125 191.695312 113.246094 191.617188 C 113.179688 191.539062 113.132812 191.453125 113.101562 191.355469 C 113.074219 191.261719 113.066406 191.160156 113.082031 191.0625 C 113.324219 189.507812 114.238281 186.019531 117.714844 183.671875 C 121.546875 181.082031 129.699219 181.433594 132.292969 181.617188 C 132.394531 181.625 132.492188 181.65625 132.585938 181.710938 C 132.675781 181.761719 132.75 181.832031 132.808594 181.917969 C 132.867188 182.007812 132.902344 182.101562 132.917969 182.207031 C 132.933594 182.308594 132.925781 182.410156 132.894531 182.511719 Z M 132.894531 182.511719 "
            fill-opacity="1" fill-rule="nonzero" />
    </g>
    <path fill="#353e4a"
        d="M 165.179688 204.320312 C 165.179688 205.316406 165.082031 206.296875 164.886719 207.273438 C 164.695312 208.246094 164.40625 209.191406 164.027344 210.109375 C 163.648438 211.027344 163.179688 211.898438 162.628906 212.722656 C 162.078125 213.550781 161.449219 214.3125 160.746094 215.015625 C 160.046875 215.71875 159.28125 216.347656 158.457031 216.898438 C 157.628906 217.449219 156.757812 217.914062 155.839844 218.296875 C 154.921875 218.675781 153.976562 218.960938 153.003906 219.15625 C 152.03125 219.351562 151.046875 219.445312 150.054688 219.445312 C 149.058594 219.445312 148.074219 219.351562 147.101562 219.15625 C 146.128906 218.960938 145.183594 218.675781 144.265625 218.296875 C 143.347656 217.914062 142.476562 217.449219 141.648438 216.898438 C 140.824219 216.347656 140.058594 215.71875 139.359375 215.015625 C 138.65625 214.3125 138.027344 213.550781 137.476562 212.722656 C 136.925781 211.898438 136.457031 211.027344 136.078125 210.109375 C 135.699219 209.191406 135.410156 208.246094 135.21875 207.273438 C 135.023438 206.296875 134.925781 205.316406 134.925781 204.320312 C 134.925781 203.328125 135.023438 202.34375 135.21875 201.371094 C 135.410156 200.398438 135.699219 199.449219 136.078125 198.535156 C 136.457031 197.617188 136.925781 196.742188 137.476562 195.917969 C 138.027344 195.09375 138.65625 194.328125 139.359375 193.625 C 140.058594 192.925781 140.824219 192.296875 141.648438 191.746094 C 142.476562 191.195312 143.347656 190.726562 144.265625 190.347656 C 145.183594 189.96875 146.128906 189.679688 147.101562 189.488281 C 148.074219 189.292969 149.058594 189.195312 150.054688 189.195312 C 151.046875 189.195312 152.03125 189.292969 153.003906 189.488281 C 153.976562 189.679688 154.921875 189.96875 155.839844 190.347656 C 156.757812 190.726562 157.628906 191.195312 158.457031 191.746094 C 159.28125 192.296875 160.046875 192.925781 160.746094 193.625 C 161.449219 194.328125 162.078125 195.09375 162.628906 195.917969 C 163.179688 196.742188 163.648438 197.617188 164.027344 198.535156 C 164.40625 199.449219 164.695312 200.398438 164.886719 201.371094 C 165.082031 202.34375 165.179688 203.328125 165.179688 204.320312 Z M 165.179688 204.320312 "
        fill-opacity="1" fill-rule="nonzero" />
    <path fill="#8d6f8d"
        d="M 238.957031 141.441406 C 234.125 137.738281 228.84375 134.851562 223.117188 132.785156 C 224.710938 133.769531 226.273438 134.847656 227.796875 136.011719 C 252.535156 154.9375 257.242188 190.332031 238.3125 215.066406 C 219.386719 239.800781 183.992188 244.507812 159.257812 225.582031 C 157.738281 224.417969 156.289062 223.191406 154.917969 221.90625 C 158.410156 226.894531 162.578125 231.242188 167.417969 234.9375 C 193.234375 254.695312 230.179688 249.78125 249.9375 223.960938 C 269.691406 198.144531 264.777344 161.199219 238.957031 141.441406 Z M 238.957031 141.441406 "
        fill-opacity="1" fill-rule="nonzero" />
    <path fill="#353e4a"
        d="M 152.453125 140.410156 C 148.351562 144.171875 144.917969 148.46875 142.148438 153.296875 C 143.300781 152 144.519531 150.765625 145.796875 149.59375 C 166.757812 130.332031 199.363281 131.710938 218.621094 152.675781 C 237.882812 173.640625 236.503906 206.242188 215.539062 225.5 C 214.25 226.6875 212.917969 227.792969 211.542969 228.824219 C 216.585938 226.472656 221.15625 223.414062 225.25 219.644531 C 247.128906 199.542969 248.570312 165.507812 228.46875 143.628906 C 208.367188 121.75 174.332031 120.308594 152.453125 140.410156 Z M 152.453125 140.410156 "
        fill-opacity="1" fill-rule="nonzero" />
</svg>